#!OML:ASF E:/inclinewalkrobotboard/Project1/Captureday1/Session1/subject1.ASF
:FULLY-SPECIFIED
:DEGREES
88
root 0 0 0 2.145903987385318 -9.408882528430171 1.6486800770437444
lowerback 0.7713148231374238 -1.7255719868160053 -3.3826960130711345
upperback -0.559729087984368 -2.2415441695483755 2.468320152265605
thorax -0.7441965187232815 -1.0939274175089029 4.411004078400785
lowerneck -32.30375545688644 -2.425552421397588 -7.551566385797626
upperneck 4.238060418636671 -1.182431838206395 5.818359301501498
head 6.079737504064209 -0.006294880343740372 2.9239320954176535
rclavicle -1.098370710400835E-15 -3.834567076767152E-15
rhumerus -32.68461119102415 -5.004569263316613 -79.88985257581878
rradius 29.778528405095855
rwrist 18.71167439882026
rhand -17.58746429484357 9.849541255478098
rfingers 7.125019999999947
rthumb 8.660112522394014 -20.025256899313398
lclavicle -9.980129689620122E-16 -1.7767296107060053E-15
lhumerus -9.407811944725966 6.959686964237702 88.14534195347953
lradius 61.956424316377834
lwrist -4.652191635052291
lhand -33.51173924493173 18.016870174088766
lfingers 7.125020000000004
lthumb -6.694832051643735 47.67446331527422
rfemur -34.605031919064956 4.742400184139477 17.843081350465173
rtibia 22.802729347786894
rfoot -5.0913993247191325 -12.325624827975869
rtoes -5.198108498270791
lfemur 20.157780043726614 -2.9747510530118264 -27.373683598754496
ltibia 30.236985386996654
lfoot -6.687887060431662 -10.752694047226777
ltoes -15.38279837227373
89
root 0 0 0 2.181558827183639 -9.45642992398085 1.6865766063333179
lowerback 0.7605286296718128 -1.7551063540703193 -3.3914205763871816
upperback -0.5218322060652998 -2.2848721103337333 2.4863574625515974
thorax -0.6975195008781254 -1.1173589771203325 4.431012657449269
lowerneck -32.64019502827749 -2.4279497455765924 -7.536383818218086
upperneck 3.8749706665123558 -1.1602194289233718 5.823216862692659
head 5.996110143273727 0.01701333994141016 2.9207187711721665
rclavicle -2.418502676910325E-15 -4.229332269564635E-15
rhumerus -32.79981181213662 -5.174196449326176 -79.8489109946716
rradius 29.742847212929497
rwrist 18.883601998155065
rhand -17.522820311263054 9.737178503033956
rfingers 7.1250199999999495
rthumb 8.721741508937718 -20.14965061069125
lclavicle -1.2245876976282718E-15 -1.9115402894633445E-15
lhumerus -9.021270707577878 7.271464187146935 87.90648428099024
lradius 61.98719675916657
lwrist -4.8094172110381965
lhand -33.605635571645934 17.934000507739473
lfingers 7.125020000000004
lthumb -6.784016543728578 47.58677249721452
rfemur -33.63755274929902 5.486179786535344 19.95635843495742
rtibia 20.68535669458163
rfoot -4.416540407727897 -11.642868665351013
rtoes -0.7971776756137352
lfemur 15.519723119703157 -1.8498880417788364 -23.703456048517765
ltibia 39.55084986768667
lfoot 0.5640399510775378 -14.156367933234689
ltoes -17.231431071434827
90
root 0 0 0 2.132129377079562 -9.432619899697682 1.6512846657889437
lowerback 0.8424130271313204 -1.7486765516266962 -3.3388978663425366
upperback -0.5071984201346857 -2.2737847719756656 2.477641242652876
thorax -0.7330004549348945 -1.1131369897423953 4.388669486926554
lowerneck -32.565504117562625 -2.4175445382706586 -7.456361725532894
upperneck 4.100804991018915 -1.1370996158540136 5.695846629882164
head 6.0614463268386345 0.010094136819760055 2.868889147703414
rclavicle -3.2134327288422517E-15 -4.2489742094772386E-15
rhumerus -32.883026484755426 -5.4360656722241565 -79.87223545652137
rradius 29.742465168802457
rwrist 19.013015581584163
rhand -17.45217393505312 9.645081182568406
rfingers 7.125019999999951
rthumb 8.78995465158669 -20.247490029987283
lclavicle -6.65875338954864E-16 -2.080461295639281E-15
lhumerus -9.387272041968963 7.803078037618454 88.28009688628744
lradius 61.46348197801803
lwrist -4.902413414860259
lhand -33.58616962182401 17.75563001276076
lfingers 7.1250200000000055
lthumb -6.766508459869414 47.40533550948251
rfemur -26.5573494052336 6.6821156876769106 26.11775771265479
rtibia 19.568435638830497
rfoot -4.489486752232594 -9.95563558510711
rtoes 6.367022666371412
lfemur 6.268203111656819 -0.9431545941412003 -19.70278877780276
ltibia 47.152270611231955
lfoot 7.295716604730179 -15.834025564469014
ltoes -14.570867537947475
91
root 0 0 0 2.004948442339278 -9.353129272457203 1.5499284746417297
lowerback 0.9896789291015804 -1.705850287898663 -3.237728815491785
upperback -0.533394078953705 -2.2076511197590474 2.444049480416288
thorax -0.8514603845309969 -1.0806025717936039 4.295375061372367
lowerneck -32.0467445372998 -2.3799989873980882 -7.3319723335538445
upperneck 4.950814098987932 -1.0928497395916612 5.444523241979787
head 6.28780001869079 -0.0205509143873044 2.778363748427432
rclavicle -3.690978652461077E-15 -3.8812423570416985E-15
rhumerus -32.9203564615165 -5.692851176256043 -79.9643079048639
rradius 29.787721152510578
rwrist 19.115347732931
rhand -17.391261204744314 9.557953916892538
rfingers 7.125019999999953
rthumb 8.850105461623336 -20.321882278089692
lclavicle -4.257328794906743E-16 -2.065423714899307E-15
lhumerus -9.853604272340817 8.562129132689314 88.8450481126909
lradius 60.77270287433916
lwrist -5.065046076371781
lhand -33.59308572092127 17.49101383600348
lfingers 7.125020000000008
lthumb -6.775426837047416 47.133711621191814
rfemur -15.143822750279075 7.406409809201607 32.84334125788723
rtibia 23.39774103510895
rfoot -5.335004516416266 -7.556092928721102
rtoes 12.53796275018683
lfemur -3.2113783457955583 -0.13034687421195446 -17.40811675540454
ltibia 52.926217973790784
lfoot 8.752613816735709 -14.569908546241807
ltoes -9.635359441606477
92
root 0 0 0 1.7678730157986964 -9.155070684859684 1.3375615373271863
lowerback 1.2004457208536152 -1.5725825979718961 -3.0953892573634705
upperback -0.6844471486377044 -2.008858303024267 2.372160617736826
thorax -1.134447009738599 -0.9812997708605633 4.14888367981698
lowerneck -30.37918594454516 -2.2325919228890623 -7.20937865740081
upperneck 7.1659691197893824 -0.964667466703473 5.058115956326008
head 6.844297248156487 -0.07795638654568159 2.67618531647409
rclavicle -4.421633602922733E-15 -2.3447693627335685E-15
rhumerus -32.89031817031922 -5.735647535104236 -80.20175997226295
rradius 29.957111239990393
rwrist 19.290173160448266
rhand -17.36083142946189 9.361556763314079
rfingers 7.125019999999958
rthumb 8.88339952102272 -20.464908220715518
lclavicle -1.256066253732671E-15 -1.535666016478085E-15
lhumerus -9.604944499865427 9.381179304229864 88.96353316642823
lradius 60.4537920094406
lwrist -5.405921833579507
lhand -33.77390875361393 17.220724213728353
lfingers 7.12502000000001
lthumb -6.951819179567009 46.84857370560566
rfemur -5.526676566967955 7.905063199505182 36.020687802578166
rtibia 26.726928308905144
rfoot -12.139443644494381 -6.220729045650246
rtoes 13.863486604559936
lfemur -16.71436062791704 2.1243787041704167 -14.02104096997932
ltibia 58.544583201709365
lfoot 2.6599580676296615 -8.994596224655345
ltoes -7.988131769404352
